<svg xmlns="http://www.w3.org/2000/svg" viewBox="137 258 448 512">
  <defs>
    <style>
      .cls-1 {
        fill: #fff;
      }
    </style>
  </defs>
  <path id="user" class="cls-1" d="M313.6,304c-28.7,0-42.5,16-89.6,16s-60.8-16-89.6-16A134.435,134.435,0,0,0,0,438.4V464a48.012,48.012,0,0,0,48,48H400a48.012,48.012,0,0,0,48-48V438.4A134.435,134.435,0,0,0,313.6,304ZM400,464H48V438.4A86.551,86.551,0,0,1,134.4,352c14.6,0,38.3,16,89.6,16,51.7,0,74.9-16,89.6-16A86.551,86.551,0,0,1,400,438.4ZM224,288A144,144,0,1,0,80,144,144.037,144.037,0,0,0,224,288Zm0-240a96,96,0,1,1-96,96A96.153,96.153,0,0,1,224,48Z" transform="translate(137 258)"/>
</svg>
