<svg xmlns="http://www.w3.org/2000/svg" viewBox="-166 154 241.966 241.966">
  <defs>
    <style>
      .cls-1 {
        fill: #363636;
      }

      .cls-2 {
        fill: #fff;
        font-size: 150px;
        font-family: Mermaid-Bold, Mermaid;
        font-weight: 700;
      }
    </style>
  </defs>
  <g id="LogoMin" transform="translate(-476.104 -51)">
    <g id="Group_18" data-name="Group 18" transform="translate(287.388 -296.325)">
      <g id="Group_1" data-name="Group 1" transform="translate(94.726 626.048)">
        <path id="Path_1" data-name="Path 1" class="cls-1" d="M147.373,748.915c11.5-1.018,25.039-1.677,40.792-1.8V709.5H143a205.679,205.679,0,0,0,4.373,39.415Z" transform="translate(-143 -709.5)"/>
      </g>
      <g id="Group_2" data-name="Group 2" transform="translate(94.726 579.086)">
        <path id="Path_2" data-name="Path 2" class="cls-1" d="M143,670.515h45.165V632.9c-15.754-.12-29.291-.779-40.792-1.8A206.762,206.762,0,0,0,143,670.515Z" transform="translate(-143 -631.1)"/>
      </g>
      <g id="Group_3" data-name="Group 3" transform="translate(100.895 517.029)">
        <path id="Path_3" data-name="Path 3" class="cls-1" d="M162.285,557.331a137.207,137.207,0,0,0-8.985,24.8c11.022.958,24.02,1.617,39,1.677V527.5C181.393,529.537,170.611,540.139,162.285,557.331Z" transform="translate(-153.3 -527.5)"/>
      </g>
      <g id="Group_4" data-name="Group 4" transform="translate(100.835 671.274)">
        <path id="Path_4" data-name="Path 4" class="cls-1" d="M163.383,813.872c4.852,9.464,10.423,16.652,16.473,21.444a28.275,28.275,0,0,0,12.4,5.99V785c-15.035.12-27.974.779-39.055,1.677a137.132,137.132,0,0,0,10.182,27.2Z" transform="translate(-153.2 -785)"/>
      </g>
      <g id="Group_5" data-name="Group 5" transform="translate(55.251 673.67)">
        <path id="Path_5" data-name="Path 5" class="cls-1" d="M126.159,818.891A140.988,140.988,0,0,1,115.137,789c-18.929,1.977-31.328,4.792-38.037,6.649a106.311,106.311,0,0,0,65.052,44.986C136.342,835.423,130.951,828.175,126.159,818.891Z" transform="translate(-77.1 -789)"/>
      </g>
      <g id="Group_6" data-name="Group 6" transform="translate(55.251 519.305)">
        <path id="Path_6" data-name="Path 6" class="cls-1" d="M124.9,555.56c5.092-10.483,10.9-18.569,17.192-24.26a103.475,103.475,0,0,0-17.132,5.451,105.01,105.01,0,0,0-35.4,24.08A106.316,106.316,0,0,0,77.1,576.345c6.769,1.857,19.168,4.612,38.037,6.649A146.5,146.5,0,0,1,124.9,555.56Z" transform="translate(-77.1 -531.3)"/>
      </g>
      <g id="Group_7" data-name="Group 7" transform="translate(37.999 571)">
        <path id="Path_7" data-name="Path 7" class="cls-1" d="M101.851,624.968c-20.845-2.216-33.9-5.451-40.373-7.368A103.841,103.841,0,0,0,48.3,665.1H97.479a215.541,215.541,0,0,1,4.372-40.132Z" transform="translate(-48.3 -617.6)"/>
      </g>
      <g id="Group_8" data-name="Group 8" transform="translate(37.999 626.048)">
        <path id="Path_8" data-name="Path 8" class="cls-1" d="M97.479,709.5H48.3A104.915,104.915,0,0,0,61.478,757c6.469-1.917,19.528-5.151,40.373-7.368A213.884,213.884,0,0,1,97.479,709.5Z" transform="translate(-48.3 -709.5)"/>
      </g>
      <g id="Group_9" data-name="Group 9" transform="translate(195.778 571)">
        <path id="Path_9" data-name="Path 9" class="cls-1" d="M316.073,665.1h49.179a104.914,104.914,0,0,0-13.178-47.5c-6.469,1.917-19.528,5.151-40.373,7.368a214.988,214.988,0,0,1,4.372,40.132Z" transform="translate(-311.7 -617.6)"/>
      </g>
      <g id="Group_10" data-name="Group 10" transform="translate(147.498 671.274)">
        <path id="Path_10" data-name="Path 10" class="cls-1" d="M270.1,786.677c-11.022-.958-24.02-1.617-39-1.677v56.307c10.962-2.037,21.684-12.639,30.01-29.831a141.9,141.9,0,0,0,8.99-24.8Z" transform="translate(-231.1 -785)"/>
      </g>
      <g id="Group_11" data-name="Group 11" transform="translate(167.086 673.61)">
        <path id="Path_11" data-name="Path 11" class="cls-1" d="M280.992,816.335c-5.092,10.483-10.9,18.569-17.192,24.26a103.488,103.488,0,0,0,17.132-5.451,105.008,105.008,0,0,0,35.4-24.08,106.315,106.315,0,0,0,12.459-15.514c-6.769-1.857-19.168-4.612-38.037-6.649a142.369,142.369,0,0,1-9.762,27.434Z" transform="translate(-263.8 -788.9)"/>
      </g>
      <g id="Group_12" data-name="Group 12" transform="translate(167.026 519.245)">
        <path id="Path_12" data-name="Path 12" class="cls-1" d="M279.694,553a140.991,140.991,0,0,1,11.022,29.891c18.929-1.977,31.328-4.792,38.037-6.649A106.6,106.6,0,0,0,263.7,531.2C269.51,536.471,274.9,543.719,279.694,553Z" transform="translate(-263.7 -531.2)"/>
      </g>
      <g id="Group_13" data-name="Group 13" transform="translate(22.612 501.387)">
        <path id="Path_13" data-name="Path 13" class="cls-1" d="M227.945,535.478a120.983,120.983,0,1,0,2.7,170.957,120.983,120.983,0,0,0-2.7-170.957ZM225.07,701.044a113.091,113.091,0,0,1-81.345,34.443h0a113.153,113.153,0,0,1,0-226.306h0A113.122,113.122,0,0,1,225.07,701.044Z" transform="translate(-22.612 -501.387)"/>
      </g>
      <g id="Group_14" data-name="Group 14" transform="translate(195.778 626.048)">
        <path id="Path_14" data-name="Path 14" class="cls-1" d="M316.073,709.5a214.989,214.989,0,0,1-4.373,40.134c20.845,2.216,33.9,5.451,40.373,7.368a103.843,103.843,0,0,0,13.178-47.5Z" transform="translate(-311.7 -709.5)"/>
      </g>
      <g id="Group_15" data-name="Group 15" transform="translate(147.438 516.969)">
        <path id="Path_15" data-name="Path 15" class="cls-1" d="M259.872,554.894c-4.852-9.464-10.423-16.652-16.473-21.5A28.276,28.276,0,0,0,231,527.4v56.367c14.975-.12,27.974-.779,39.055-1.677A135.738,135.738,0,0,0,259.872,554.894Z" transform="translate(-231 -527.4)"/>
      </g>
      <g id="Group_16" data-name="Group 16" transform="translate(147.438 626.048)">
        <path id="Path_16" data-name="Path 16" class="cls-1" d="M276.225,709.5H231v37.618c15.754.12,29.291.779,40.792,1.8A201.456,201.456,0,0,0,276.225,709.5Z" transform="translate(-231 -709.5)"/>
      </g>
      <g id="Group_17" data-name="Group 17" transform="translate(147.498 579.146)">
        <path id="Path_17" data-name="Path 17" class="cls-1" d="M271.892,631.2c-11.5,1.018-25.039,1.677-40.792,1.8v37.618h45.165a210.568,210.568,0,0,0-4.373-39.418Z" transform="translate(-231.1 -631.2)"/>
      </g>
    </g>
    <text id="CW" class="cls-2" transform="translate(315 367.875)"><tspan x="0" y="0">CW</tspan></text>
  </g>
</svg>
