<svg xmlns="http://www.w3.org/2000/svg" viewBox="69 187 266.893 266.895">
  <defs>
    <style>
      .cls-1 {
        fill: #fff;
      }
    </style>
  </defs>
  <g id="facebook2" transform="translate(69 187)">
    <path id="Path_1" data-name="Path 1" class="cls-1" d="M252.164,266.895a14.731,14.731,0,0,0,14.729-14.73V14.73A14.729,14.729,0,0,0,252.164,0H14.73A14.728,14.728,0,0,0,0,14.73V252.164a14.729,14.729,0,0,0,14.73,14.73H252.164Z"/>
    <path id="Path_2" data-name="Path 2" d="M184.152,266.895V163.539h34.692l5.194-40.28H184.151V97.542c0-11.662,3.238-19.609,19.962-19.609l21.329-.01V41.9a285.434,285.434,0,0,0-31.08-1.587c-30.753,0-51.807,18.771-51.807,53.244v29.705H107.774v40.28h34.781V266.894h41.6Z"/>
  </g>
</svg>
