<svg xmlns="http://www.w3.org/2000/svg" viewBox="299 214 255.009 248.714">
  <defs>
    <style>
      .cls-1 {
        fill: #fff;
      }
    </style>
  </defs>
  <g id="github" transform="translate(299 214)">
    <path id="Path_1" data-name="Path 1" class="cls-1" d="M127.5,0A127.519,127.519,0,0,0,87.2,248.495c6.372,1.18,8.712-2.766,8.712-6.134,0-3.04-.119-13.085-.173-23.739-35.473,7.713-42.958-15.044-42.958-15.044-5.8-14.738-14.157-18.656-14.157-18.656-11.568-7.914.872-7.752.872-7.752,12.8.9,19.546,13.14,19.546,13.14,11.372,19.493,29.828,13.857,37.1,10.6,1.144-8.242,4.449-13.866,8.1-17.05-28.32-3.225-58.092-14.158-58.092-63.014A49.344,49.344,0,0,1,59.283,86.622c-1.324-3.212-5.688-16.18,1.235-33.743,0,0,10.707-3.427,35.073,13.07a120.956,120.956,0,0,1,63.856,0c24.337-16.5,35.029-13.07,35.029-13.07,6.94,17.563,2.574,30.531,1.25,33.743a49.249,49.249,0,0,1,13.122,34.224c0,48.972-29.828,59.756-58.22,62.912,4.573,3.957,8.648,11.717,8.648,23.612,0,17.06-.148,30.791-.148,34.991,0,3.393,2.295,7.369,8.759,6.117A127.524,127.524,0,0,0,127.5,0"/>
    <path id="Path_2" data-name="Path 2" class="cls-1" d="M47.755,181.634c-.28.633-1.278.823-2.185.389-.925-.416-1.445-1.28-1.145-1.916.275-.652,1.273-.834,2.2-.4.927.415,1.455,1.287,1.134,1.923m6.272,5.6c-.608.564-1.8.3-2.6-.589-.834-.889-.99-2.077-.373-2.65s1.78-.3,2.616.59,1,2.08.36,2.65m4.3,7.159c-.782.543-2.06.034-2.849-1.1s-.781-2.493.017-3.038,2.05-.055,2.85,1.07c.78,1.153.78,2.513-.019,3.069m7.277,8.292c-.7.77-2.187.564-3.277-.488-1.114-1.028-1.425-2.487-.724-3.258s2.2-.555,3.3.488c1.107,1.026,1.445,2.5.7,3.258m9.4,2.8c-.307,1-1.741,1.452-3.185,1.028s-2.386-1.607-2.1-2.616,1.74-1.478,3.195-1.024c1.44.435,2.386,1.6,2.086,2.612m10.7,1.187c.036,1.052-1.189,1.924-2.705,1.943s-2.758-.818-2.774-1.852c0-1.062,1.2-1.926,2.721-1.951s2.758.815,2.758,1.86m10.514-.4c.182,1.026-.872,2.08-2.377,2.36-1.48.27-2.85-.363-3.039-1.38-.184-1.052.89-2.1,2.367-2.378,1.508-.262,2.857.355,3.049,1.4"/>
  </g>
</svg>
