<svg xmlns="http://www.w3.org/2000/svg" viewBox="364 259 255.878 261.1">
  <defs>
    <style>
      .cls-1 {
        fill: #fff;
      }
    </style>
  </defs>
  <g id="google2" transform="translate(364 259)">
    <path id="Path_1" data-name="Path 1" class="cls-1" d="M255.878,133.451a111.874,111.874,0,0,0-2.756-26.69H130.55v48.448H202.5c-1.45,12.04-9.283,30.172-26.69,42.356l-.244,1.622,38.755,30.023,2.685.268c24.659-22.774,38.875-56.282,38.875-96.027"/>
    <path id="Path_2" data-name="Path 2" class="cls-1" d="M130.55,261.1c35.248,0,64.839-11.6,86.453-31.622l-41.2-31.913c-11.024,7.688-25.82,13.055-45.257,13.055-34.523,0-63.824-22.773-74.269-54.25l-1.531.13-40.3,31.187-.527,1.465A130.456,130.456,0,0,0,130.55,261.1"/>
    <path id="Path_3" data-name="Path 3" class="cls-1" d="M56.281,156.37a80.371,80.371,0,0,1-4.351-25.82,84.455,84.455,0,0,1,4.206-25.82L56.063,103,15.26,71.312l-1.335.635a130.275,130.275,0,0,0,0,117.205L56.281,156.37"/>
    <path id="Path_4" data-name="Path 4" class="cls-1" d="M130.55,50.479c24.514,0,41.05,10.589,50.479,19.438l36.844-35.974C195.245,12.91,165.8,0,130.55,0A130.455,130.455,0,0,0,13.925,71.947L56.136,104.73c10.59-31.477,39.891-54.251,74.414-54.251"/>
  </g>
</svg>
