<svg xmlns="http://www.w3.org/2000/svg" viewBox="82 239 700 700">
  <defs>
    <style>
      .cls-1 {
        fill: #363636;
      }

      .cls-2 {
        fill: #b0b0b0;
        font-size: 432px;
        font-family: Mermaid-Bold, Mermaid;
        font-weight: 700;
      }
    </style>
  </defs>
  <g id="LogoMin" transform="translate(-228.104 34)">
    <g id="Group_18" data-name="Group 18" transform="translate(310.104 205)">
      <g id="Group_1" data-name="Group 1" transform="translate(208.322 360.819)">
        <path id="Path_1" data-name="Path 1" class="cls-1" d="M155.651,823.526c33.269-2.945,72.437-4.852,118.01-5.207V709.5H143a595.013,595.013,0,0,0,12.651,114.026Z" transform="translate(-143 -709.5)"/>
      </g>
      <g id="Group_2" data-name="Group 2" transform="translate(208.322 224.959)">
        <path id="Path_2" data-name="Path 2" class="cls-1" d="M143,745.126H273.661V636.307c-45.576-.347-84.738-2.254-118.01-5.207A598.157,598.157,0,0,0,143,745.126Z" transform="translate(-143 -631.1)"/>
      </g>
      <g id="Group_3" data-name="Group 3" transform="translate(226.169 45.43)">
        <path id="Path_3" data-name="Path 3" class="cls-1" d="M179.293,613.8A396.935,396.935,0,0,0,153.3,685.545c31.886,2.772,69.489,4.678,112.826,4.852V527.5C234.572,533.393,203.38,564.064,179.293,613.8Z" transform="translate(-153.3 -527.5)"/>
      </g>
      <g id="Group_4" data-name="Group 4" transform="translate(225.998 491.656)">
        <path id="Path_4" data-name="Path 4" class="cls-1" d="M182.657,868.526c14.037,27.379,30.153,48.174,47.656,62.037a81.8,81.8,0,0,0,35.873,17.329V785c-43.5.347-80.928,2.254-112.985,4.852a396.718,396.718,0,0,0,29.456,78.689Z" transform="translate(-153.201 -785)"/>
      </g>
      <g id="Group_5" data-name="Group 5" transform="translate(94.123 498.587)">
        <path id="Path_5" data-name="Path 5" class="cls-1" d="M219.026,875.474A407.875,407.875,0,0,1,187.14,789c-54.761,5.719-90.631,13.863-110.04,19.235A307.555,307.555,0,0,0,265.293,938.378C248.485,923.3,232.889,902.332,219.026,875.474Z" transform="translate(-77.1 -789)"/>
      </g>
      <g id="Group_6" data-name="Group 6" transform="translate(94.123 52.015)">
        <path id="Path_6" data-name="Path 6" class="cls-1" d="M215.384,601.483c14.731-30.327,31.533-53.72,49.736-70.183a299.358,299.358,0,0,0-49.562,15.77,303.8,303.8,0,0,0-102.411,69.663A307.575,307.575,0,0,0,77.1,661.613c19.582,5.372,55.452,13.342,110.04,19.235a423.812,423.812,0,0,1,28.244-79.366Z" transform="translate(-77.1 -531.3)"/>
      </g>
      <g id="Group_7" data-name="Group 7" transform="translate(44.213 201.567)">
        <path id="Path_7" data-name="Path 7" class="cls-1" d="M203.221,638.915c-60.3-6.411-98.072-15.77-116.8-21.315A300.409,300.409,0,0,0,48.3,755.016H190.573a623.559,623.559,0,0,1,12.648-116.1Z" transform="translate(-48.3 -617.6)"/>
      </g>
      <g id="Group_8" data-name="Group 8" transform="translate(44.213 360.819)">
        <path id="Path_8" data-name="Path 8" class="cls-1" d="M190.573,709.5H48.3A303.515,303.515,0,0,0,86.424,846.916c18.715-5.546,56.494-14.9,116.8-21.315a618.759,618.759,0,0,1-12.648-116.1Z" transform="translate(-48.3 -709.5)"/>
      </g>
      <g id="Group_9" data-name="Group 9" transform="translate(500.665 201.566)">
        <path id="Path_9" data-name="Path 9" class="cls-1" d="M324.349,755.016H466.622A303.513,303.513,0,0,0,428.5,617.6c-18.715,5.546-56.494,14.9-116.8,21.316A621.958,621.958,0,0,1,324.349,755.016Z" transform="translate(-311.701 -617.6)"/>
      </g>
      <g id="Group_10" data-name="Group 10" transform="translate(360.99 491.656)">
        <path id="Path_10" data-name="Path 10" class="cls-1" d="M343.926,789.851C312.039,787.08,274.437,785.173,231.1,785V947.894c31.713-5.893,62.731-36.564,86.818-86.3a410.509,410.509,0,0,0,26.008-71.745Z" transform="translate(-231.1 -785)"/>
      </g>
      <g id="Group_11" data-name="Group 11" transform="translate(417.658 498.417)">
        <path id="Path_11" data-name="Path 11" class="cls-1" d="M313.536,868.267C298.8,898.593,282,921.986,263.8,938.45a299.38,299.38,0,0,0,49.562-15.77,303.779,303.779,0,0,0,102.411-69.663,307.557,307.557,0,0,0,36.044-44.881c-19.583-5.372-55.452-13.342-110.04-19.235a411.873,411.873,0,0,1-28.241,79.366Z" transform="translate(-263.8 -788.901)"/>
      </g>
      <g id="Group_12" data-name="Group 12" transform="translate(417.484 51.841)">
        <path id="Path_12" data-name="Path 12" class="cls-1" d="M309.97,594.267a407.886,407.886,0,0,1,31.886,86.474c54.761-5.719,90.631-13.863,110.04-19.235A308.391,308.391,0,0,0,263.7,531.2C280.508,546.449,296.1,567.417,309.97,594.267Z" transform="translate(-263.7 -531.2)"/>
      </g>
      <g id="Group_13" data-name="Group 13" transform="translate(0 0)">
        <path id="Path_13" data-name="Path 13" class="cls-1" d="M616.437,600.128C477.659,465.481,255.99,468.881,121.407,607.72s-131.082,360.506,7.818,495.026,360.566,130.917,495.022-8.045c134.282-138.782,130.787-360.1-7.811-494.573ZM608.119,1079.1a327.168,327.168,0,0,1-235.328,99.643h0C192,1178.747,45.443,1032.188,45.443,851.4S192,524.052,372.791,524.052h0A327.258,327.258,0,0,1,608.119,1079.1Z" transform="translate(-22.716 -501.325)"/>
      </g>
      <g id="Group_14" data-name="Group 14" transform="translate(500.662 360.819)">
        <path id="Path_14" data-name="Path 14" class="cls-1" d="M324.351,709.5A621.952,621.952,0,0,1,311.7,825.606c60.3,6.411,98.072,15.769,116.8,21.315a300.413,300.413,0,0,0,38.124-137.416Z" transform="translate(-311.7 -709.5)"/>
      </g>
      <g id="Group_15" data-name="Group 15" transform="translate(360.817 45.257)">
        <path id="Path_15" data-name="Path 15" class="cls-1" d="M314.526,606.939c-14.037-27.379-30.153-48.174-47.656-62.2A81.8,81.8,0,0,0,231,527.4V690.468c43.322-.347,80.928-2.254,112.985-4.851A392.69,392.69,0,0,0,314.526,606.939Z" transform="translate(-231 -527.4)"/>
      </g>
      <g id="Group_16" data-name="Group 16" transform="translate(360.817 360.819)">
        <path id="Path_16" data-name="Path 16" class="cls-1" d="M361.834,709.5H231V818.327c45.576.347,84.738,2.254,118.01,5.207A582.811,582.811,0,0,0,361.834,709.5Z" transform="translate(-231 -709.5)"/>
      </g>
      <g id="Group_17" data-name="Group 17" transform="translate(360.99 225.133)">
        <path id="Path_17" data-name="Path 17" class="cls-1" d="M349.11,631.2c-33.269,2.945-72.437,4.852-118.01,5.207V745.235H361.761A609.177,609.177,0,0,0,349.11,631.2Z" transform="translate(-231.1 -631.2)"/>
      </g>
    </g>
    <text id="CW" class="cls-2" transform="translate(324.268 674.641)"><tspan x="0" y="0">CW</tspan></text>
  </g>
</svg>
