<svg xmlns="http://www.w3.org/2000/svg" viewBox="133 246 241.966 241.966">
  <defs>
    <style>
      .cls-1 {
        fill: #363636;
      }

      .cls-2 {
        fill: #fff;
      }
    </style>
  </defs>
  <g id="LogoMin" transform="translate(-177.104 41)">
    <g id="Group_18" data-name="Group 18" transform="translate(287.388 -296.325)">
      <g id="Group_1" data-name="Group 1" transform="translate(94.726 626.048)">
        <path id="Path_1" data-name="Path 1" class="cls-1" d="M147.373,748.915c11.5-1.018,25.039-1.677,40.792-1.8V709.5H143a205.677,205.677,0,0,0,4.373,39.415Z" transform="translate(-143 -709.5)"/>
      </g>
      <g id="Group_2" data-name="Group 2" transform="translate(94.726 579.086)">
        <path id="Path_2" data-name="Path 2" class="cls-1" d="M143,670.515h45.165V632.9c-15.754-.12-29.291-.779-40.792-1.8A206.762,206.762,0,0,0,143,670.515Z" transform="translate(-143 -631.1)"/>
      </g>
      <g id="Group_3" data-name="Group 3" transform="translate(100.895 517.029)">
        <path id="Path_3" data-name="Path 3" class="cls-1" d="M162.285,557.331a137.21,137.21,0,0,0-8.985,24.8c11.022.958,24.02,1.617,39,1.677V527.5C181.393,529.537,170.611,540.139,162.285,557.331Z" transform="translate(-153.3 -527.5)"/>
      </g>
      <g id="Group_4" data-name="Group 4" transform="translate(100.835 671.274)">
        <path id="Path_4" data-name="Path 4" class="cls-1" d="M163.383,813.872c4.852,9.464,10.423,16.652,16.473,21.444a28.275,28.275,0,0,0,12.4,5.99V785c-15.035.12-27.974.779-39.055,1.677a137.133,137.133,0,0,0,10.182,27.2Z" transform="translate(-153.2 -785)"/>
      </g>
      <g id="Group_5" data-name="Group 5" transform="translate(55.251 673.67)">
        <path id="Path_5" data-name="Path 5" class="cls-1" d="M126.159,818.891A140.989,140.989,0,0,1,115.137,789c-18.929,1.977-31.328,4.792-38.037,6.649a106.311,106.311,0,0,0,65.052,44.986C136.342,835.423,130.951,828.175,126.159,818.891Z" transform="translate(-77.1 -789)"/>
      </g>
      <g id="Group_6" data-name="Group 6" transform="translate(55.251 519.305)">
        <path id="Path_6" data-name="Path 6" class="cls-1" d="M124.9,555.56c5.092-10.483,10.9-18.569,17.192-24.26a103.482,103.482,0,0,0-17.132,5.451,105.012,105.012,0,0,0-35.4,24.08A106.319,106.319,0,0,0,77.1,576.345c6.769,1.857,19.168,4.612,38.037,6.649A146.5,146.5,0,0,1,124.9,555.56Z" transform="translate(-77.1 -531.3)"/>
      </g>
      <g id="Group_7" data-name="Group 7" transform="translate(37.999 571)">
        <path id="Path_7" data-name="Path 7" class="cls-1" d="M101.851,624.968c-20.845-2.216-33.9-5.451-40.373-7.368A103.841,103.841,0,0,0,48.3,665.1H97.479a215.542,215.542,0,0,1,4.372-40.132Z" transform="translate(-48.3 -617.6)"/>
      </g>
      <g id="Group_8" data-name="Group 8" transform="translate(37.999 626.048)">
        <path id="Path_8" data-name="Path 8" class="cls-1" d="M97.479,709.5H48.3A104.915,104.915,0,0,0,61.478,757c6.469-1.917,19.528-5.151,40.373-7.368A213.884,213.884,0,0,1,97.479,709.5Z" transform="translate(-48.3 -709.5)"/>
      </g>
      <g id="Group_9" data-name="Group 9" transform="translate(195.778 571)">
        <path id="Path_9" data-name="Path 9" class="cls-1" d="M316.073,665.1h49.179a104.914,104.914,0,0,0-13.178-47.5c-6.469,1.917-19.528,5.151-40.373,7.368A214.988,214.988,0,0,1,316.073,665.1Z" transform="translate(-311.7 -617.6)"/>
      </g>
      <g id="Group_10" data-name="Group 10" transform="translate(147.498 671.274)">
        <path id="Path_10" data-name="Path 10" class="cls-1" d="M270.1,786.677c-11.022-.958-24.02-1.617-39-1.677v56.307c10.962-2.037,21.684-12.639,30.01-29.831a141.9,141.9,0,0,0,8.99-24.8Z" transform="translate(-231.1 -785)"/>
      </g>
      <g id="Group_11" data-name="Group 11" transform="translate(167.086 673.61)">
        <path id="Path_11" data-name="Path 11" class="cls-1" d="M280.992,816.335c-5.092,10.483-10.9,18.569-17.192,24.26a103.488,103.488,0,0,0,17.132-5.451,105.008,105.008,0,0,0,35.4-24.08,106.312,106.312,0,0,0,12.459-15.514c-6.769-1.857-19.168-4.612-38.037-6.649a142.37,142.37,0,0,1-9.762,27.434Z" transform="translate(-263.8 -788.9)"/>
      </g>
      <g id="Group_12" data-name="Group 12" transform="translate(167.026 519.245)">
        <path id="Path_12" data-name="Path 12" class="cls-1" d="M279.694,553a140.991,140.991,0,0,1,11.022,29.891c18.929-1.977,31.328-4.792,38.037-6.649A106.6,106.6,0,0,0,263.7,531.2C269.51,536.471,274.9,543.719,279.694,553Z" transform="translate(-263.7 -531.2)"/>
      </g>
      <g id="Group_13" data-name="Group 13" transform="translate(22.612 501.387)">
        <path id="Path_13" data-name="Path 13" class="cls-1" d="M227.945,535.478a120.983,120.983,0,1,0,2.7,170.957,120.983,120.983,0,0,0-2.7-170.957ZM225.07,701.044a113.091,113.091,0,0,1-81.345,34.443h0a113.153,113.153,0,0,1,0-226.306h0A113.122,113.122,0,0,1,225.07,701.044Z" transform="translate(-22.612 -501.387)"/>
      </g>
      <g id="Group_14" data-name="Group 14" transform="translate(195.778 626.048)">
        <path id="Path_14" data-name="Path 14" class="cls-1" d="M316.073,709.5a214.989,214.989,0,0,1-4.373,40.134c20.845,2.216,33.9,5.451,40.373,7.368a103.843,103.843,0,0,0,13.178-47.5Z" transform="translate(-311.7 -709.5)"/>
      </g>
      <g id="Group_15" data-name="Group 15" transform="translate(147.438 516.969)">
        <path id="Path_15" data-name="Path 15" class="cls-1" d="M259.872,554.894c-4.852-9.464-10.423-16.652-16.473-21.5A28.276,28.276,0,0,0,231,527.4v56.367c14.975-.12,27.974-.779,39.055-1.677A135.738,135.738,0,0,0,259.872,554.894Z" transform="translate(-231 -527.4)"/>
      </g>
      <g id="Group_16" data-name="Group 16" transform="translate(147.438 626.048)">
        <path id="Path_16" data-name="Path 16" class="cls-1" d="M276.225,709.5H231v37.618c15.754.12,29.291.779,40.792,1.8a201.458,201.458,0,0,0,4.433-39.418Z" transform="translate(-231 -709.5)"/>
      </g>
      <g id="Group_17" data-name="Group 17" transform="translate(147.498 579.146)">
        <path id="Path_17" data-name="Path 17" class="cls-1" d="M271.892,631.2c-11.5,1.018-25.039,1.677-40.792,1.8v37.618h45.165a210.572,210.572,0,0,0-4.373-39.418Z" transform="translate(-231.1 -631.2)"/>
      </g>
    </g>
    <path id="CW" class="cls-2" d="M3-50.1A51.232,51.232,0,0,1,7.2-70.725a53.381,53.381,0,0,1,11.588-16.95A54.742,54.742,0,0,1,36.15-99.15a55.091,55.091,0,0,1,21.6-4.2,60.8,60.8,0,0,1,11.437.975,64.563,64.563,0,0,1,8.663,2.212,41.526,41.526,0,0,1,5.662,2.325A17.856,17.856,0,0,1,85.8-96.525a1.946,1.946,0,0,1,.9,1.575v17.775a1.115,1.115,0,0,1-.3.825,1.307,1.307,0,0,1-.675.375,1.03,1.03,0,0,1-.75-.15,1.589,1.589,0,0,1-.6-.675q-1.425-3.375-3.412-7.275a33.649,33.649,0,0,0-4.988-7.238,25.254,25.254,0,0,0-7.162-5.512A21.027,21.027,0,0,0,58.95-99a20.336,20.336,0,0,0-12.412,3.788,28.088,28.088,0,0,0-8.4,10.35,55.292,55.292,0,0,0-4.763,15.375,111.976,111.976,0,0,0-1.5,18.787,61.622,61.622,0,0,0,2.363,17.85A35.49,35.49,0,0,0,41.25-19.688a29.87,29.87,0,0,0,11.663,8.175A43.4,43.4,0,0,0,69.15-8.7,52.175,52.175,0,0,0,79.313-9.75a38.318,38.318,0,0,0,10.313-3.675,1.376,1.376,0,0,1,1.012-.187,1.372,1.372,0,0,1,.75.412,1.026,1.026,0,0,1,.225.787A1.674,1.674,0,0,1,91.05-11.4a45.793,45.793,0,0,1-15.3,9.975A52.944,52.944,0,0,1,55.875,2.1a58.21,58.21,0,0,1-22.35-4.05A47.965,47.965,0,0,1,16.913-13.088,48.15,48.15,0,0,1,6.563-29.663,57.668,57.668,0,0,1,3-50.1Zm228.3-51.075a1.25,1.25,0,0,1,.862.3,1.23,1.23,0,0,1,.413.712,1.014,1.014,0,0,1-.187.788,1.423,1.423,0,0,1-.863.525,23.03,23.03,0,0,0-7.163,3.225,15.03,15.03,0,0,0-5.137,6.675q-1.05,2.4-2.812,6.9t-4.05,10.35q-2.288,5.85-4.875,12.675T202.2-45.113q-2.7,7.088-5.325,14.063t-4.913,13.125q-2.287,6.15-4.162,11.138t-3,7.988a1.477,1.477,0,0,1-1.162,1.013q-.788.113-1.163-.937-.6-1.8-1.837-5.25t-2.85-7.95q-1.613-4.5-3.45-9.638T170.7-31.8q-1.8-5.1-3.525-9.863T164.138-50.1q-1.313-3.675-2.175-6t-.937-2.55q-.3-.6-.75-.525t-.75.75q-2.175,5.625-4.387,11.513T150.75-35.25q-2.175,5.775-4.237,11.288t-3.825,10.238Q140.925-9,139.463-5.138T137.1,1.2a1.477,1.477,0,0,1-1.163,1.013q-.788.113-1.162-.937-.975-2.775-2.588-7.35t-3.675-10.387q-2.063-5.813-4.425-12.413t-4.8-13.388q-2.437-6.787-4.838-13.35t-4.537-12.262q-2.138-5.7-3.9-10.163T103.05-85.05a30.446,30.446,0,0,0-6.338-9.525A15.43,15.43,0,0,0,88.95-98.7a1.009,1.009,0,0,1-.825-.488,1.307,1.307,0,0,1-.15-.863,1.339,1.339,0,0,1,.45-.787,1.514,1.514,0,0,1,1.05-.338h94.8a1.25,1.25,0,0,1,.863.3,1.45,1.45,0,0,1,.45.712.9.9,0,0,1-.15.788,1.845,1.845,0,0,1-1.013.6q-.525.15-1.537.45a15.948,15.948,0,0,0-2.212.862,15.123,15.123,0,0,0-2.4,1.425,7.069,7.069,0,0,0-1.987,2.213,8.712,8.712,0,0,0-1.05,3.188,10.79,10.79,0,0,0,.412,4.313q.75,2.925,2.137,7.013t3.038,8.737q1.65,4.65,3.413,9.488T187.65-51.9q1.65,4.35,3,7.875t2.1,5.55q.3.675.788.638a.838.838,0,0,0,.712-.638q.75-2.1,2.138-5.925t3.075-8.55l3.563-9.975q1.875-5.25,3.6-10.2t3.113-9.225q1.387-4.275,2.212-7.05a6.287,6.287,0,0,0-.075-4.425,6.631,6.631,0,0,0-2.362-2.737,10.776,10.776,0,0,0-3.337-1.463q-1.8-.45-2.925-.75a1.265,1.265,0,0,1-.9-.563,1.227,1.227,0,0,1-.15-.825,1.23,1.23,0,0,1,.413-.712,1.362,1.362,0,0,1,.937-.3Zm-84.75,62.7q.45-1.275,1.313-3.6t1.913-5.25q1.05-2.925,2.175-6.112t2.025-6.112q.9-2.925,1.462-5.287A17.118,17.118,0,0,0,156-68.55a17.9,17.9,0,0,0-.6-4.387,43.571,43.571,0,0,0-1.463-4.65q-.862-2.287-1.762-4.238T150.75-85.05a32.524,32.524,0,0,0-2.887-5.213,16.233,16.233,0,0,0-3.45-3.675,12.726,12.726,0,0,0-4.275-2.137,19.536,19.536,0,0,0-5.363-.675,9.91,9.91,0,0,0-3.15.525A5.893,5.893,0,0,0,129-94.5a6.889,6.889,0,0,0-1.462,3.225,10.689,10.689,0,0,0,.412,4.95q.75,2.925,2.1,7.013t3,8.737q1.65,4.65,3.45,9.488t3.45,9.188q1.65,4.35,3,7.875t2.1,5.55q.3.675.788.638A.838.838,0,0,0,146.55-38.475Z" transform="translate(315 367.875)"/>
  </g>
</svg>
