<svg id="Group_1" data-name="Group 1" xmlns="http://www.w3.org/2000/svg" viewBox="156 293 1000 600">
  <defs>
    <style>
      .cls-1 {
        fill: #fff;
      }
    </style>
  </defs>
  <rect id="Rectangle_1" data-name="Rectangle 1" width="1000" height="600" transform="translate(156 293)"/>
  <path id="user" class="cls-1" d="M247.45,239.875c-22.646,0-33.535,12.625-70.7,12.625s-47.975-12.625-70.7-12.625A106.077,106.077,0,0,0,0,345.925v20.2A37.885,37.885,0,0,0,37.875,404h277.75A37.885,37.885,0,0,0,353.5,366.125v-20.2A106.077,106.077,0,0,0,247.45,239.875Zm68.175,126.25H37.875v-20.2A68.294,68.294,0,0,1,106.05,277.75c11.52,0,30.221,12.625,70.7,12.625,40.795,0,59.1-12.625,70.7-12.625a68.294,68.294,0,0,1,68.175,68.175ZM176.75,227.25A113.625,113.625,0,1,0,63.125,113.625,113.654,113.654,0,0,0,176.75,227.25Zm0-189.375A75.75,75.75,0,1,1,101,113.625,75.871,75.871,0,0,1,176.75,37.875Z" transform="translate(479 391)"/>
</svg>
