<svg xmlns="http://www.w3.org/2000/svg" viewBox="117 265 725.25 241.966">
  <defs>
    <style>
      .cls-1 {
        fill: #363636;
      }

      .cls-2 {
        fill: #fff;
      }
    </style>
  </defs>
  <g id="Logo" transform="translate(-18 -464.125)">
    <g id="Group_18" data-name="Group 18" transform="translate(339.388 227.8)">
      <g id="Group_1" data-name="Group 1" transform="translate(94.726 626.048)">
        <path id="Path_1" data-name="Path 1" class="cls-1" d="M147.373,748.915c11.5-1.018,25.039-1.677,40.792-1.8V709.5H143a205.679,205.679,0,0,0,4.373,39.415Z" transform="translate(-143 -709.5)"/>
      </g>
      <g id="Group_2" data-name="Group 2" transform="translate(94.726 579.086)">
        <path id="Path_2" data-name="Path 2" class="cls-1" d="M143,670.515h45.165V632.9c-15.754-.12-29.291-.779-40.792-1.8A206.762,206.762,0,0,0,143,670.515Z" transform="translate(-143 -631.1)"/>
      </g>
      <g id="Group_3" data-name="Group 3" transform="translate(100.895 517.029)">
        <path id="Path_3" data-name="Path 3" class="cls-1" d="M162.285,557.331a137.207,137.207,0,0,0-8.985,24.8c11.022.958,24.02,1.617,39,1.677V527.5C181.393,529.537,170.611,540.139,162.285,557.331Z" transform="translate(-153.3 -527.5)"/>
      </g>
      <g id="Group_4" data-name="Group 4" transform="translate(100.835 671.274)">
        <path id="Path_4" data-name="Path 4" class="cls-1" d="M163.383,813.872c4.852,9.464,10.423,16.652,16.473,21.444a28.275,28.275,0,0,0,12.4,5.99V785c-15.035.12-27.974.779-39.055,1.677a137.132,137.132,0,0,0,10.182,27.2Z" transform="translate(-153.2 -785)"/>
      </g>
      <g id="Group_5" data-name="Group 5" transform="translate(55.251 673.67)">
        <path id="Path_5" data-name="Path 5" class="cls-1" d="M126.159,818.891A140.988,140.988,0,0,1,115.137,789c-18.929,1.977-31.328,4.792-38.037,6.649a106.311,106.311,0,0,0,65.052,44.986C136.342,835.423,130.951,828.175,126.159,818.891Z" transform="translate(-77.1 -789)"/>
      </g>
      <g id="Group_6" data-name="Group 6" transform="translate(55.251 519.305)">
        <path id="Path_6" data-name="Path 6" class="cls-1" d="M124.9,555.56c5.092-10.483,10.9-18.569,17.192-24.26a103.475,103.475,0,0,0-17.132,5.451,105.01,105.01,0,0,0-35.4,24.08A106.316,106.316,0,0,0,77.1,576.345c6.769,1.857,19.168,4.612,38.037,6.649A146.5,146.5,0,0,1,124.9,555.56Z" transform="translate(-77.1 -531.3)"/>
      </g>
      <g id="Group_7" data-name="Group 7" transform="translate(37.999 571)">
        <path id="Path_7" data-name="Path 7" class="cls-1" d="M101.851,624.968c-20.845-2.216-33.9-5.451-40.373-7.368A103.841,103.841,0,0,0,48.3,665.1H97.479a215.541,215.541,0,0,1,4.372-40.132Z" transform="translate(-48.3 -617.6)"/>
      </g>
      <g id="Group_8" data-name="Group 8" transform="translate(37.999 626.048)">
        <path id="Path_8" data-name="Path 8" class="cls-1" d="M97.479,709.5H48.3A104.915,104.915,0,0,0,61.478,757c6.469-1.917,19.528-5.151,40.373-7.368A213.884,213.884,0,0,1,97.479,709.5Z" transform="translate(-48.3 -709.5)"/>
      </g>
      <g id="Group_9" data-name="Group 9" transform="translate(195.778 571)">
        <path id="Path_9" data-name="Path 9" class="cls-1" d="M316.073,665.1h49.179a104.914,104.914,0,0,0-13.178-47.5c-6.469,1.917-19.528,5.151-40.373,7.368a214.988,214.988,0,0,1,4.372,40.132Z" transform="translate(-311.7 -617.6)"/>
      </g>
      <g id="Group_10" data-name="Group 10" transform="translate(147.498 671.274)">
        <path id="Path_10" data-name="Path 10" class="cls-1" d="M270.1,786.677c-11.022-.958-24.02-1.617-39-1.677v56.307c10.962-2.037,21.684-12.639,30.01-29.831a141.9,141.9,0,0,0,8.99-24.8Z" transform="translate(-231.1 -785)"/>
      </g>
      <g id="Group_11" data-name="Group 11" transform="translate(167.086 673.61)">
        <path id="Path_11" data-name="Path 11" class="cls-1" d="M280.992,816.335c-5.092,10.483-10.9,18.569-17.192,24.26a103.488,103.488,0,0,0,17.132-5.451,105.008,105.008,0,0,0,35.4-24.08,106.315,106.315,0,0,0,12.459-15.514c-6.769-1.857-19.168-4.612-38.037-6.649a142.369,142.369,0,0,1-9.762,27.434Z" transform="translate(-263.8 -788.9)"/>
      </g>
      <g id="Group_12" data-name="Group 12" transform="translate(167.026 519.245)">
        <path id="Path_12" data-name="Path 12" class="cls-1" d="M279.694,553a140.991,140.991,0,0,1,11.022,29.891c18.929-1.977,31.328-4.792,38.037-6.649A106.6,106.6,0,0,0,263.7,531.2C269.51,536.471,274.9,543.719,279.694,553Z" transform="translate(-263.7 -531.2)"/>
      </g>
      <g id="Group_13" data-name="Group 13" transform="translate(22.612 501.387)">
        <path id="Path_13" data-name="Path 13" class="cls-1" d="M227.945,535.478a120.983,120.983,0,1,0,2.7,170.957,120.983,120.983,0,0,0-2.7-170.957ZM225.07,701.044a113.091,113.091,0,0,1-81.345,34.443h0a113.153,113.153,0,0,1,0-226.306h0A113.122,113.122,0,0,1,225.07,701.044Z" transform="translate(-22.612 -501.387)"/>
      </g>
      <g id="Group_14" data-name="Group 14" transform="translate(195.778 626.048)">
        <path id="Path_14" data-name="Path 14" class="cls-1" d="M316.073,709.5a214.989,214.989,0,0,1-4.373,40.134c20.845,2.216,33.9,5.451,40.373,7.368a103.843,103.843,0,0,0,13.178-47.5Z" transform="translate(-311.7 -709.5)"/>
      </g>
      <g id="Group_15" data-name="Group 15" transform="translate(147.438 516.969)">
        <path id="Path_15" data-name="Path 15" class="cls-1" d="M259.872,554.894c-4.852-9.464-10.423-16.652-16.473-21.5A28.276,28.276,0,0,0,231,527.4v56.367c14.975-.12,27.974-.779,39.055-1.677A135.738,135.738,0,0,0,259.872,554.894Z" transform="translate(-231 -527.4)"/>
      </g>
      <g id="Group_16" data-name="Group 16" transform="translate(147.438 626.048)">
        <path id="Path_16" data-name="Path 16" class="cls-1" d="M276.225,709.5H231v37.618c15.754.12,29.291.779,40.792,1.8A201.456,201.456,0,0,0,276.225,709.5Z" transform="translate(-231 -709.5)"/>
      </g>
      <g id="Group_17" data-name="Group 17" transform="translate(147.498 579.146)">
        <path id="Path_17" data-name="Path 17" class="cls-1" d="M271.892,631.2c-11.5,1.018-25.039,1.677-40.792,1.8v37.618h45.165a210.568,210.568,0,0,0-4.373-39.418Z" transform="translate(-231.1 -631.2)"/>
      </g>
    </g>
    <path id="CourseWeb" class="cls-2" d="M3-50.1A51.232,51.232,0,0,1,7.2-70.725a53.381,53.381,0,0,1,11.588-16.95A54.742,54.742,0,0,1,36.15-99.15a55.091,55.091,0,0,1,21.6-4.2,60.8,60.8,0,0,1,11.437.975,64.563,64.563,0,0,1,8.663,2.212,41.526,41.526,0,0,1,5.662,2.325A17.856,17.856,0,0,1,85.8-96.525a1.946,1.946,0,0,1,.9,1.575v17.775a1.115,1.115,0,0,1-.3.825,1.307,1.307,0,0,1-.675.375,1.03,1.03,0,0,1-.75-.15,1.589,1.589,0,0,1-.6-.675q-1.425-3.375-3.412-7.275a33.649,33.649,0,0,0-4.988-7.238,25.254,25.254,0,0,0-7.162-5.512A21.027,21.027,0,0,0,58.95-99a20.336,20.336,0,0,0-12.412,3.788,28.088,28.088,0,0,0-8.4,10.35,55.292,55.292,0,0,0-4.763,15.375,111.976,111.976,0,0,0-1.5,18.787,61.622,61.622,0,0,0,2.363,17.85A35.49,35.49,0,0,0,41.25-19.688a29.87,29.87,0,0,0,11.663,8.175A43.4,43.4,0,0,0,69.15-8.7,52.175,52.175,0,0,0,79.313-9.75a38.318,38.318,0,0,0,10.313-3.675,1.376,1.376,0,0,1,1.012-.187,1.372,1.372,0,0,1,.75.412,1.026,1.026,0,0,1,.225.787A1.674,1.674,0,0,1,91.05-11.4a45.793,45.793,0,0,1-15.3,9.975A52.944,52.944,0,0,1,55.875,2.1a58.21,58.21,0,0,1-22.35-4.05A47.965,47.965,0,0,1,16.913-13.088,48.15,48.15,0,0,1,6.563-29.663,57.668,57.668,0,0,1,3-50.1ZM130.95-69.375a36.19,36.19,0,0,1,14.212,2.738,33.645,33.645,0,0,1,11.137,7.5,34.451,34.451,0,0,1,7.275,11.212,36.255,36.255,0,0,1,2.625,13.8,34.468,34.468,0,0,1-2.85,13.95,36.58,36.58,0,0,1-7.8,11.438A36.766,36.766,0,0,1,143.888-.975a36.555,36.555,0,0,1-14.437,2.85A36.19,36.19,0,0,1,115.238-.863a33.645,33.645,0,0,1-11.137-7.5,34.55,34.55,0,0,1-7.275-11.175A36.171,36.171,0,0,1,94.2-33.375a34.549,34.549,0,0,1,2.85-13.913,36.46,36.46,0,0,1,7.8-11.475,36.766,36.766,0,0,1,11.662-7.763A36.555,36.555,0,0,1,130.95-69.375ZM130.2-2.1a8.9,8.9,0,0,0,6.262-2.475,18.821,18.821,0,0,0,4.425-6.787A45.089,45.089,0,0,0,143.55-21.45a79.914,79.914,0,0,0,.9-12.3,79.914,79.914,0,0,0-.9-12.3,45.087,45.087,0,0,0-2.662-10.088,18.822,18.822,0,0,0-4.425-6.787A8.9,8.9,0,0,0,130.2-65.4a8.9,8.9,0,0,0-6.263,2.475,19.206,19.206,0,0,0-4.463,6.787,42.555,42.555,0,0,0-2.663,10.088,83.322,83.322,0,0,0-.862,12.3,83.322,83.322,0,0,0,.862,12.3,42.555,42.555,0,0,0,2.663,10.088,19.206,19.206,0,0,0,4.463,6.787A8.9,8.9,0,0,0,130.2-2.1Zm121.125-.075a1.517,1.517,0,0,1,.862.488.849.849,0,0,1,.188.713,1.22,1.22,0,0,1-.413.675,1.362,1.362,0,0,1-.937.3h-27.15a2.1,2.1,0,0,1-1.312-.375,1.419,1.419,0,0,1-.488-1.2V-6A28.7,28.7,0,0,1,213.9-.488a29.186,29.186,0,0,1-12.45,2.363A33.826,33.826,0,0,1,191.138.525a20.906,20.906,0,0,1-6.9-3.6,15.863,15.863,0,0,1-4.2-5.175,24.318,24.318,0,0,1-2.1-6.075,38.549,38.549,0,0,1-.75-6.263q-.112-3.112-.112-5.812V-55.725a8.72,8.72,0,0,0-1.2-4.838,9.664,9.664,0,0,0-2.737-2.85,10.028,10.028,0,0,0-3-1.388q-1.463-.375-2.062-.525a1.167,1.167,0,0,1-.863-.45.951.951,0,0,1-.187-.75,1.22,1.22,0,0,1,.412-.675,1.362,1.362,0,0,1,.938-.3h27.15q1.8,0,1.8,1.95v43.875a44.265,44.265,0,0,0,.563,6,17.2,17.2,0,0,0,1.8,5.438A10.483,10.483,0,0,0,203.363-6.3,11.712,11.712,0,0,0,209.7-4.8a11.122,11.122,0,0,0,6.637-1.763,11.47,11.47,0,0,0,3.713-4.462,18.926,18.926,0,0,0,1.65-5.963,54.89,54.89,0,0,0,.375-6.262V-55.725a8.72,8.72,0,0,0-1.2-4.838,9.664,9.664,0,0,0-2.737-2.85,10.028,10.028,0,0,0-3-1.388q-1.463-.375-2.062-.525a1.167,1.167,0,0,1-.863-.45.951.951,0,0,1-.187-.75,1.22,1.22,0,0,1,.412-.675,1.362,1.362,0,0,1,.938-.3h27.15q1.8,0,1.8,1.95v53.775a8.72,8.72,0,0,0,1.2,4.838,9.664,9.664,0,0,0,2.738,2.85,10.857,10.857,0,0,0,3,1.425A16.477,16.477,0,0,0,251.325-2.175Zm51.75-67.2a15.738,15.738,0,0,1,5.325.788,9.722,9.722,0,0,1,3.525,2.1,7.691,7.691,0,0,1,1.95,3.075,11.441,11.441,0,0,1,.6,3.712,7.122,7.122,0,0,1-2.288,5.625,8.885,8.885,0,0,1-6.112,2.025A8.489,8.489,0,0,1,301.5-53.1a14.542,14.542,0,0,1-2.812-2.288q-1.162-1.237-2.137-2.287a3.147,3.147,0,0,0-2.4-1.05,5.441,5.441,0,0,0-2.738.862,7.8,7.8,0,0,0-2.7,3.263A25.466,25.466,0,0,0,286.65-48a58.3,58.3,0,0,0-.825,10.875v25.95a9.341,9.341,0,0,0,1.012,4.725,8.037,8.037,0,0,0,2.325,2.625,8.415,8.415,0,0,0,2.587,1.238,15.993,15.993,0,0,0,1.875.412,1.517,1.517,0,0,1,.863.488.849.849,0,0,1,.188.713,1.22,1.22,0,0,1-.413.675,1.362,1.362,0,0,1-.937.3h-35.25a1.362,1.362,0,0,1-.937-.3,1.22,1.22,0,0,1-.413-.675.849.849,0,0,1,.188-.713,1.517,1.517,0,0,1,.862-.488,15.993,15.993,0,0,0,1.875-.412,8.415,8.415,0,0,0,2.588-1.238,8.037,8.037,0,0,0,2.325-2.625,9.341,9.341,0,0,0,1.013-4.725v-42.3a1.107,1.107,0,0,0-.9-1.2,8.783,8.783,0,0,1-1.088-.225q-.937-.225-2.137-.525t-2.212-.525q-1.013-.225-1.238-.3-.975-.225-1.012-1.012t1.087-1.088a65.388,65.388,0,0,0,6.337-1.837q3.412-1.162,6.862-2.625t6.675-3.15a59.826,59.826,0,0,0,5.775-3.413,2.062,2.062,0,0,1,1.388-.375q.713.075.712,1.125V-57.9a19.288,19.288,0,0,1,7.125-8.625A18.525,18.525,0,0,1,303.075-69.375Zm15.3,64.2q0-.15-.337-2.138t-.712-4.387q-.375-2.4-.712-4.538T316.2-18.9q-.15-1.05.6-1.238a.934.934,0,0,1,1.125.413,13.5,13.5,0,0,0,.975,1.575q.9,1.35,2.475,3.3t3.788,4.2a35.147,35.147,0,0,0,4.95,4.163,27.676,27.676,0,0,0,5.962,3.15,19.094,19.094,0,0,0,6.9,1.237,9.327,9.327,0,0,0,6.712-2.325,8.106,8.106,0,0,0,2.438-6.15,15.224,15.224,0,0,0-.525-3.975,9.84,9.84,0,0,0-2.25-3.9,20.642,20.642,0,0,0-4.95-3.863,51.768,51.768,0,0,0-8.625-3.862A33.142,33.142,0,0,1,327.45-30.3a22.83,22.83,0,0,1-5.475-5.363,20.213,20.213,0,0,1-3.038-6.375A27.211,27.211,0,0,1,318-49.275a22.382,22.382,0,0,1,1.05-6.412,17.082,17.082,0,0,1,3.788-6.525,21.37,21.37,0,0,1,7.462-5.1,30.376,30.376,0,0,1,12.075-2.063,46.56,46.56,0,0,1,8.625.75,60.263,60.263,0,0,1,6.938,1.688,40,40,0,0,1,4.725,1.762q1.763.825,1.988.9a1.252,1.252,0,0,1,.525.375,2.327,2.327,0,0,1,.15.525q0,.15.375,2.063t.75,4.163q.375,2.25.75,4.125t.375,2.1a.906.906,0,0,1-.525,1.087q-.675.338-1.2-.412a49.978,49.978,0,0,0-3.3-4.05,38.657,38.657,0,0,0-5.475-5.025,38.356,38.356,0,0,0-7.163-4.312,19.536,19.536,0,0,0-8.362-1.837q-4.65,0-6.825,2.475a8.774,8.774,0,0,0-2.175,6,11.672,11.672,0,0,0,.525,3.488,7.559,7.559,0,0,0,2.25,3.263,21.827,21.827,0,0,0,4.987,3.187A58.23,58.23,0,0,0,349.05-43.8q10.95,3.375,16.575,9.15t5.625,14.925a22.915,22.915,0,0,1-1.575,8.587A17.715,17.715,0,0,1,364.8-4.312,23.621,23.621,0,0,1,356.4.225a39.666,39.666,0,0,1-12.15,1.65,57.74,57.74,0,0,1-10.537-.862,61.48,61.48,0,0,1-7.8-1.913,34.739,34.739,0,0,1-4.987-1.988q-1.8-.937-2.1-1.162a1.257,1.257,0,0,1-.263-.45A4.369,4.369,0,0,1,318.375-5.175Zm81.3-34.575q-1.2,0-1.2,1.275a55.474,55.474,0,0,0,1.35,13.125,24.926,24.926,0,0,0,3.938,8.963,15.512,15.512,0,0,0,6.45,5.138,22.66,22.66,0,0,0,8.962,1.65,26.533,26.533,0,0,0,6.938-.825,30.674,30.674,0,0,0,5.288-1.912,28.843,28.843,0,0,0,3.675-2.062,15.443,15.443,0,0,1,2.1-1.275,1.351,1.351,0,0,1,1.65.188q.6.638,0,1.912-.225.45-1.012,1.762a22.338,22.338,0,0,1-2.288,3.038,32.784,32.784,0,0,1-3.75,3.6,28.311,28.311,0,0,1-5.363,3.45A34.41,34.41,0,0,1,419.288.863a36.665,36.665,0,0,1-8.963,1.012A37.185,37.185,0,0,1,396.75-.488,28.47,28.47,0,0,1,386.363-7.35a31,31,0,0,1-6.675-10.95,42.093,42.093,0,0,1-2.363-14.55,39.481,39.481,0,0,1,2.925-15.675,35.034,35.034,0,0,1,7.65-11.438,32.52,32.52,0,0,1,10.725-7.013,32.654,32.654,0,0,1,12.225-2.4,30.278,30.278,0,0,1,10.313,1.613,27.186,27.186,0,0,1,7.725,4.2,25.523,25.523,0,0,1,5.4,5.775,36.9,36.9,0,0,1,3.45,6.338,30.026,30.026,0,0,1,1.837,5.925A25.142,25.142,0,0,1,440.1-41.1a1.133,1.133,0,0,1-.488,1.05,2.488,2.488,0,0,1-1.312.3Zm-.825-4.95q-.15.975.9.975.225,0,1.5-.038t3.112-.113q1.838-.075,3.938-.15t4.013-.15q1.912-.075,3.3-.113a14.07,14.07,0,0,0,1.763-.112,4.778,4.778,0,0,0,2.512-1.05,3.94,3.94,0,0,0,1.313-3.375,24.761,24.761,0,0,0-.6-5.025,21.359,21.359,0,0,0-1.913-5.4,14.348,14.348,0,0,0-3.337-4.313,7.276,7.276,0,0,0-4.95-1.763,6.765,6.765,0,0,0-4.05,1.238,11.169,11.169,0,0,0-2.963,3.225,21.476,21.476,0,0,0-2.062,4.387,46.287,46.287,0,0,0-1.35,4.688q-.525,2.288-.787,4.2T398.85-44.7Zm183.225-56.475a1.25,1.25,0,0,1,.862.3,1.23,1.23,0,0,1,.413.712,1.014,1.014,0,0,1-.187.788,1.423,1.423,0,0,1-.862.525,23.03,23.03,0,0,0-7.163,3.225A15.03,15.03,0,0,0,570-88.95q-1.05,2.4-2.812,6.9t-4.05,10.35q-2.287,5.85-4.875,12.675t-5.287,13.913q-2.7,7.088-5.325,14.063t-4.913,13.125q-2.287,6.15-4.162,11.138t-3,7.988a1.477,1.477,0,0,1-1.162,1.013q-.788.113-1.163-.937-.6-1.8-1.837-5.25t-2.85-7.95q-1.613-4.5-3.45-9.638T521.475-31.8q-1.8-5.1-3.525-9.863T514.913-50.1q-1.313-3.675-2.175-6t-.938-2.55q-.3-.6-.75-.525t-.75.75q-2.175,5.625-4.388,11.513T501.525-35.25q-2.175,5.775-4.238,11.288t-3.825,10.238Q491.7-9,490.238-5.138T487.875,1.2a1.477,1.477,0,0,1-1.162,1.013q-.787.113-1.163-.937-.975-2.775-2.587-7.35t-3.675-10.387q-2.062-5.813-4.425-12.413t-4.8-13.388q-2.437-6.787-4.837-13.35t-4.538-12.262q-2.137-5.7-3.9-10.163t-2.962-7.012a30.446,30.446,0,0,0-6.337-9.525,15.43,15.43,0,0,0-7.763-4.125,1.009,1.009,0,0,1-.825-.488,1.307,1.307,0,0,1-.15-.863,1.339,1.339,0,0,1,.45-.787,1.514,1.514,0,0,1,1.05-.338h94.8a1.25,1.25,0,0,1,.862.3,1.45,1.45,0,0,1,.45.712.9.9,0,0,1-.15.788,1.845,1.845,0,0,1-1.013.6q-.525.15-1.537.45a15.949,15.949,0,0,0-2.213.862,15.123,15.123,0,0,0-2.4,1.425,7.069,7.069,0,0,0-1.987,2.213,8.713,8.713,0,0,0-1.05,3.188,10.79,10.79,0,0,0,.413,4.313q.75,2.925,2.137,7.013t3.038,8.737q1.65,4.65,3.412,9.488t3.412,9.188q1.65,4.35,3,7.875t2.1,5.55q.3.675.787.638a.838.838,0,0,0,.713-.638q.75-2.1,2.138-5.925t3.075-8.55l3.563-9.975q1.875-5.25,3.6-10.2t3.112-9.225q1.387-4.275,2.213-7.05a6.287,6.287,0,0,0-.075-4.425,6.631,6.631,0,0,0-2.362-2.737,10.776,10.776,0,0,0-3.338-1.463q-1.8-.45-2.925-.75a1.265,1.265,0,0,1-.9-.563,1.227,1.227,0,0,1-.15-.825,1.23,1.23,0,0,1,.412-.712,1.362,1.362,0,0,1,.938-.3Zm-84.75,62.7q.45-1.275,1.313-3.6t1.913-5.25q1.05-2.925,2.175-6.112t2.025-6.112q.9-2.925,1.463-5.287a17.118,17.118,0,0,0,.563-3.713,17.9,17.9,0,0,0-.6-4.387,43.571,43.571,0,0,0-1.462-4.65q-.863-2.287-1.763-4.238t-1.425-3.225a32.526,32.526,0,0,0-2.888-5.213,16.233,16.233,0,0,0-3.45-3.675,12.725,12.725,0,0,0-4.275-2.137,19.536,19.536,0,0,0-5.362-.675,9.909,9.909,0,0,0-3.15.525,5.893,5.893,0,0,0-2.625,1.725,6.889,6.889,0,0,0-1.463,3.225,10.689,10.689,0,0,0,.413,4.95q.75,2.925,2.1,7.013t3,8.737q1.65,4.65,3.45,9.488t3.45,9.188q1.65,4.35,3,7.875t2.1,5.55q.3.675.788.638A.838.838,0,0,0,497.325-38.475Zm104.7-1.275q-1.2,0-1.2,1.275a55.472,55.472,0,0,0,1.35,13.125,24.925,24.925,0,0,0,3.938,8.963,15.512,15.512,0,0,0,6.45,5.138,22.66,22.66,0,0,0,8.963,1.65,26.533,26.533,0,0,0,6.938-.825,30.675,30.675,0,0,0,5.287-1.912,28.846,28.846,0,0,0,3.675-2.062,15.445,15.445,0,0,1,2.1-1.275,1.351,1.351,0,0,1,1.65.188q.6.638,0,1.912-.225.45-1.013,1.762a22.341,22.341,0,0,1-2.288,3.038,32.784,32.784,0,0,1-3.75,3.6,28.311,28.311,0,0,1-5.362,3.45A34.411,34.411,0,0,1,621.638.863a36.665,36.665,0,0,1-8.962,1.012A37.186,37.186,0,0,1,599.1-.488,28.471,28.471,0,0,1,588.713-7.35a31,31,0,0,1-6.675-10.95,42.093,42.093,0,0,1-2.362-14.55A39.481,39.481,0,0,1,582.6-48.525a35.035,35.035,0,0,1,7.65-11.438,32.52,32.52,0,0,1,10.725-7.013,32.654,32.654,0,0,1,12.225-2.4,30.278,30.278,0,0,1,10.313,1.613,27.186,27.186,0,0,1,7.725,4.2,25.522,25.522,0,0,1,5.4,5.775,36.9,36.9,0,0,1,3.45,6.338,30.029,30.029,0,0,1,1.838,5.925,25.141,25.141,0,0,1,.525,4.425,1.133,1.133,0,0,1-.487,1.05,2.489,2.489,0,0,1-1.312.3ZM601.2-44.7q-.15.975.9.975.225,0,1.5-.038t3.112-.113q1.838-.075,3.938-.15t4.013-.15q1.912-.075,3.3-.113a14.071,14.071,0,0,0,1.763-.112,4.778,4.778,0,0,0,2.513-1.05,3.94,3.94,0,0,0,1.313-3.375,24.76,24.76,0,0,0-.6-5.025,21.356,21.356,0,0,0-1.912-5.4,14.348,14.348,0,0,0-3.338-4.313,7.276,7.276,0,0,0-4.95-1.763,6.765,6.765,0,0,0-4.05,1.238,11.169,11.169,0,0,0-2.962,3.225,21.473,21.473,0,0,0-2.062,4.387,46.3,46.3,0,0,0-1.35,4.688q-.525,2.288-.787,4.2T601.2-44.7ZM699-69.375A31.779,31.779,0,0,1,709.5-67.8a24.989,24.989,0,0,1,7.763,4.275,25.154,25.154,0,0,1,5.4,6.15,33.131,33.131,0,0,1,3.375,7.275,42.115,42.115,0,0,1,1.725,7.65,57.1,57.1,0,0,1,.487,7.2,52.81,52.81,0,0,1-2.062,15.3,32.028,32.028,0,0,1-6.225,11.7A27.33,27.33,0,0,1,709.5-.75a38.013,38.013,0,0,1-14.7,2.625,51.148,51.148,0,0,1-8.325-.6A34.411,34.411,0,0,1,679.913-.45a26.917,26.917,0,0,1-5.475-2.813A48.866,48.866,0,0,1,669.375-7.2a1.775,1.775,0,0,0-.562-.3q-.262-.075-.638.3-.825.675-2.287,1.987t-3.113,2.888q-1.65,1.575-3.262,3.15t-2.588,2.7a1.091,1.091,0,0,1-1.275.413,1.171,1.171,0,0,1-.675-1.238V-70.2q0-5.475.038-10.125t.037-8.1v-7.35a1.107,1.107,0,0,0-.9-1.2,7.686,7.686,0,0,1-1.087-.262q-.937-.262-2.138-.525t-2.213-.525a7.674,7.674,0,0,0-1.237-.263q-.975-.225-1.013-1.05t1.088-1.05a65.389,65.389,0,0,0,6.338-1.838q3.412-1.162,6.862-2.625t6.675-3.15a59.834,59.834,0,0,0,5.775-3.412,2.062,2.062,0,0,1,1.387-.375q.713.075.713,1.125V-58.95a.671.671,0,0,0,.45.375q.3.075.525-.3.675-.825,2.25-2.587a21.039,21.039,0,0,1,4.313-3.525,29.318,29.318,0,0,1,6.75-3.075A30.345,30.345,0,0,1,699-69.375Zm7.5,37.65q0-1.725-.038-4.5a53.151,53.151,0,0,0-.45-6A47.882,47.882,0,0,0,704.7-48.75a20.553,20.553,0,0,0-2.625-5.925,14.29,14.29,0,0,0-4.425-4.312,12.366,12.366,0,0,0-6.675-1.687A15.583,15.583,0,0,0,682.8-58.8a13.837,13.837,0,0,0-4.725,4.575,16.214,16.214,0,0,0-2.175,5.737,31.938,31.938,0,0,0-.525,5.362v20.25a36.139,36.139,0,0,0,.638,6.375A23.2,23.2,0,0,0,678.3-9.825a15.549,15.549,0,0,0,4.5,5.288A11.8,11.8,0,0,0,690.075-2.4a12.52,12.52,0,0,0,7.537-2.25,16.78,16.78,0,0,0,5.1-6.188,32.54,32.54,0,0,0,2.888-9.3A70.092,70.092,0,0,0,706.5-31.725Z" transform="translate(132 891)"/>
  </g>
</svg>
