<svg xmlns="http://www.w3.org/2000/svg" viewBox="93 173 448 448">
  <defs>
    <style>
      .cls-1 {
        fill: #fff;
      }
    </style>
  </defs>
  <path id="facebook" class="cls-1" d="M448,56.7V455.2a24.689,24.689,0,0,1-24.7,24.7H309.1V306.5h58.2l8.7-67.6H309V195.7c0-19.6,5.4-32.9,33.5-32.9h35.8V102.3a481.311,481.311,0,0,0-52.2-2.7c-51.6,0-87,31.5-87,89.4v49.9H180.7v67.6h58.4V480H24.7A24.753,24.753,0,0,1,0,455.3V56.7A24.753,24.753,0,0,1,24.7,32H423.2A24.775,24.775,0,0,1,448,56.7Z" transform="translate(93 141)"/>
</svg>
